{
    "asset" : {
        "generator" : "Khronos glTF Blender I/O v1.5.17",
        "version" : "2.0"
    },
    "scene" : 0,
    "scenes" : [
        {
            "name" : "Scene",
            "nodes" : [
                0
            ]
        }
    ],
    "nodes" : [
        {
            "mesh" : 0,
            "name" : "Plane",
            "scale" : [
                100,
                100,
                100
            ]
        }
    ],
    "meshes" : [
        {
            "name" : "Plane.001",
            "primitives" : [
                {
                    "attributes" : {
                        "POSITION" : 0,
                        "NORMAL" : 1,
                        "TEXCOORD_0" : 2
                    },
                    "indices" : 3
                }
            ]
        }
    ],
    "accessors" : [
        {
            "bufferView" : 0,
            "componentType" : 5126,
            "count" : 1892,
            "max" : [
                1,
                0.0005000000237487257,
                1
            ],
            "min" : [
                -1,
                -0.0005000000237487257,
                -1
            ],
            "type" : "VEC3"
        },
        {
            "bufferView" : 1,
            "componentType" : 5126,
            "count" : 1892,
            "type" : "VEC3"
        },
        {
            "bufferView" : 2,
            "componentType" : 5126,
            "count" : 1892,
            "type" : "VEC2"
        },
        {
            "bufferView" : 3,
            "componentType" : 5123,
            "count" : 3072,
            "type" : "SCALAR"
        }
    ],
    "bufferViews" : [
        {
            "buffer" : 0,
            "byteLength" : 22704,
            "byteOffset" : 0
        },
        {
            "buffer" : 0,
            "byteLength" : 22704,
            "byteOffset" : 22704
        },
        {
            "buffer" : 0,
            "byteLength" : 15136,
            "byteOffset" : 45408
        },
        {
            "buffer" : 0,
            "byteLength" : 6144,
            "byteOffset" : 60544
        }
    ],
    "buffers" : [
        {
            "byteLength" : 66688,
            "uri" : "data:application/octet-stream;base64,"
        }
    ]
}
