{
    "asset" : {
        "generator" : "Khronos glTF Blender I/O v1.5.17",
        "version" : "2.0"
    },
    "scene" : 0,
    "scenes" : [
        {
            "name" : "Scene",
            "nodes" : [
                0
            ]
        }
    ],
    "nodes" : [
        {
            "mesh" : 0,
            "name" : "Plane"
        }
    ],
    "meshes" : [
        {
            "name" : "Plane",
            "primitives" : [
                {
                    "attributes" : {
                        "POSITION" : 0,
                        "NORMAL" : 1,
                        "TEXCOORD_0" : 2
                    },
                    "indices" : 3
                }
            ]
        }
    ],
    "accessors" : [
        {
            "bufferView" : 0,
            "componentType" : 5126,
            "count" : 1248,
            "max" : [
                100.03500366210938,
                0.03500000014901161,
                100.03500366210938
            ],
            "min" : [
                -100.03500366210938,
                -0.03500000014901161,
                -100.03500366210938
            ],
            "type" : "VEC3"
        },
        {
            "bufferView" : 1,
            "componentType" : 5126,
            "count" : 1248,
            "type" : "VEC3"
        },
        {
            "bufferView" : 2,
            "componentType" : 5126,
            "count" : 1248,
            "type" : "VEC2"
        },
        {
            "bufferView" : 3,
            "componentType" : 5123,
            "count" : 2016,
            "type" : "SCALAR"
        }
    ],
    "bufferViews" : [
        {
            "buffer" : 0,
            "byteLength" : 14976,
            "byteOffset" : 0
        },
        {
            "buffer" : 0,
            "byteLength" : 14976,
            "byteOffset" : 14976
        },
        {
            "buffer" : 0,
            "byteLength" : 9984,
            "byteOffset" : 29952
        },
        {
            "buffer" : 0,
            "byteLength" : 4032,
            "byteOffset" : 39936
        }
    ],
    "buffers" : [
        {
            "byteLength" : 43968,
            "uri" : "data:application/octet-stream;base64,"
        }
    ]
}
