{
    "asset" : {
        "generator" : "Khronos glTF Blender I/O v1.5.17",
        "version" : "2.0"
    },
    "scene" : 0,
    "scenes" : [
        {
            "name" : "Scene",
            "nodes" : [
                1,
                2
            ]
        }
    ],
    "nodes" : [
        {
            "name" : "Bone"
        },
        {
            "children" : [
                0
            ],
            "name" : "Armature"
        },
        {
            "mesh" : 0,
            "name" : "Plane.002"
        }
    ],
    "meshes" : [
        {
            "name" : "Plane.003",
            "primitives" : [
                {
                    "attributes" : {
                        "POSITION" : 0,
                        "NORMAL" : 1,
                        "TEXCOORD_0" : 2
                    },
                    "indices" : 3
                }
            ]
        }
    ],
    "accessors" : [
        {
            "bufferView" : 0,
            "componentType" : 5126,
            "count" : 44,
            "max" : [
                2.1812593936920166,
                0,
                2.8750123977661133
            ],
            "min" : [
                -2.1812593936920166,
                0,
                -2.8750123977661133
            ],
            "type" : "VEC3"
        },
        {
            "bufferView" : 1,
            "componentType" : 5126,
            "count" : 44,
            "type" : "VEC3"
        },
        {
            "bufferView" : 2,
            "componentType" : 5126,
            "count" : 44,
            "type" : "VEC2"
        },
        {
            "bufferView" : 3,
            "componentType" : 5123,
            "count" : 162,
            "type" : "SCALAR"
        }
    ],
    "bufferViews" : [
        {
            "buffer" : 0,
            "byteLength" : 528,
            "byteOffset" : 0
        },
        {
            "buffer" : 0,
            "byteLength" : 528,
            "byteOffset" : 528
        },
        {
            "buffer" : 0,
            "byteLength" : 352,
            "byteOffset" : 1056
        },
        {
            "buffer" : 0,
            "byteLength" : 324,
            "byteOffset" : 1408
        }
    ],
    "buffers" : [
        {
            "byteLength" : 1732,
            "uri" : "data:application/octet-stream;base64,"
        }
    ]
}
